<?xml version="1.0" encoding="UTF-8"?>
<svg version="1.1" viewBox="0 0 1600 1600" width="1280" height="1280" xmlns="http://www.w3.org/2000/svg">
<path transform="translate(0)" d="m0 0h1600v1600h-1600v-1600z" fill="#FCFDFF"/>
<path transform="translate(817 311)" d="m0 0c1.65 1.36 3.22 2.82 4.77 4.29v2h2c17.3 18 20.7 38.2 20.2 62.2-0.545 16.4-3.32 32-14.2 44.8-0.543 0.674-1.09 1.35-1.64 2.04-2.97 3.63-2.97 3.63-4.36 4.96h-2c-0.33 0.99-0.66 1.98-1 3-1.9 1.69-3.78 3.23-5.81 4.75-0.585 0.442-1.17 0.883-1.77 1.34-16.2 12-33.1 18.5-53.4 16.9-10.8-1.62-20.5-5.62-30.5-9.91-7.47-3.66-7.47-3.66-15.4-3.47-2.12 0.93-4.15 1.97-6.19 3.07-0.694 0.353-1.39 0.705-2.1 1.07-3.99 2.07-7.36 4.37-10.8 7.24-2.56 1.81-5.16 3.56-7.75 5.31-6.81 4.65-13.5 9.38-19.7 14.8-7.45 6.44-15.3 11.9-23.6 17.3-5.33 3.54-10.1 7.29-14.8 11.6-3.46 3.07-7.21 5.7-11 8.36-1.59 1.13-3.18 2.26-4.76 3.4-0.761 0.542-1.52 1.08-2.31 1.64-5.38 3.86-10.6 7.88-15.9 11.9-9.64 7.3-19.4 14.4-29.3 21.3-14.2 9.79-14.2 9.79-22.9 24.3-0.62 4.96 0.438 9.34 1.47 14.2 1.46 7.76 1.6 15.7 1.74 23.6 0.0144 0.767 0.0287 1.53 0.0435 2.33 0.0573 3.18 0.112 6.36 0.147 9.54-0.114 14.2-0.114 14.2 5.47 27 4.69 4.46 9.39 7.94 14.9 11.3 4.02 2.67 7.64 5.7 11.3 8.81 5.55 4.66 11.2 9.07 17.1 13.2 6.69 4.63 13.2 9.44 19.7 14.4 0.852 0.65 1.7 1.3 2.58 1.97 4.26 3.26 8.47 6.56 12.6 9.92 4 3.21 8.06 6.33 12.2 9.36 0.638 0.468 1.28 0.936 1.93 1.42 3.87 2.82 7.8 5.49 11.8 8.08 4.36 2.85 8.27 5.96 12.2 9.38 5.1 4.45 10.4 8.25 16.1 11.9 4.73 3.08 9.21 6.38 13.7 9.86 4.26 3.33 8.58 6.57 12.9 9.77 0.623 0.461 1.25 0.922 1.89 1.4 5.93 4.57 5.93 4.57 12.8 7.23 3.37-0.573 4.65-1.29 7.44-3.12 5.11-3.28 10.4-5.27 16.1-7.25 0.864-0.302 1.73-0.603 2.62-0.914 22-7.46 42.7-2.08 63.6 6.08 6.57 2.59 6.57 2.59 13.5 2.64 6.26-2.87 11.6-7.41 16.8-11.9 4.34-3.72 8.66-6.68 13.6-9.5 5.98-3.42 11-7.32 16.1-11.9 6.69-5.92 14-11 21.3-16.1 3.45-2.48 6.83-5.03 10.2-7.59 5.56-4.19 11.2-8.31 16.8-12.4 22.5-16 22.5-16 43.6-33.8 3.98-3.7 7.81-6.58 12.6-9.23 6.16-3.46 11.1-7.53 16.1-12.6 0.73-0.733 1.46-1.47 2.21-2.22 2.62-2.93 4.62-5.23 5.06-9.21-0.22-2.6-0.668-5.02-1.27-7.56-5.4-24.4 2.35-47 15.4-67.6 11.1-17 29.4-25.5 48.6-30.4 0.74-0.191 1.48-0.382 2.24-0.578 13.1-2.01 26.3-0.802 38.8 3.58 1.13 0.385 2.26 0.771 3.42 1.17 23.3 8.46 36.8 23.6 47.7 45.8 7.22 16.4 8.13 40.4 1.9 57.1-3.95 9.6-9.13 17.3-16 25-0.625 0.768-1.25 1.54-1.89 2.33-10.4 12.6-27.1 24.3-43.5 27.1-19.8 1.8-37.1-1.48-55.4-8.95-1.13-0.461-2.27-0.923-3.43-1.4-0.975-0.422-1.95-0.843-2.95-1.28-3.98-1.12-6.82-0.765-10.5 1.08-1.96 1.13-3.86 2.33-5.75 3.57-0.7 0.449-1.4 0.898-2.12 1.36-10.6 6.84-20.5 14.2-30.2 22.2-6.18 5.06-12.7 9.64-19.2 14.2-7.03 4.89-13.8 10.1-20.6 15.3-5.53 4.3-11.2 8.41-16.9 12.4-9.41 6.59-18.5 13.4-27.2 20.9-4.8 4.08-9.8 7.22-15.2 10.4-8.16 4.76-14.3 10.4-20.7 17.3-3.85 4.06-8.09 7.67-12.8 10.7-2.65 1.44-2.65 1.44-3.56 3.69 0.325 5.05 1.12 9.48 2.56 14.3 5.09 20-0.322 38.9-10.4 56.3-3.2 5.01-6.87 9.22-11.1 13.3-0.884 0.862-0.884 0.862-1.79 1.74-4.44 4.08-9.32 7.6-14.2 11.2-15 11-15 11-24.1 27.1-0.102 2.5-0.148 4.97-0.147 7.48-0.00552 1.15-0.00552 1.15-0.0111 2.33-0.011 2.58-0.0149 5.16-0.0187 7.74-0.00626 1.85-0.0129 3.7-0.0199 5.54-0.021 6.08-0.0314 12.2-0.0414 18.2-0.00405 2.09-0.00816 4.18-0.0124 6.28-0.0191 9.83-0.0333 19.7-0.0416 29.5-0.00977 11.3-0.0361 22.7-0.0765 34-0.0302 8.77-0.045 17.5-0.0483 26.3-0.00235 5.24-0.0113 10.5-0.0365 15.7-0.0233 4.93-0.0275 9.86-0.0172 14.8 4.95e-4 1.81-0.00581 3.61-0.0196 5.42-0.0782 10.9 0.0496 20.5 7.75 29.1 7.11 6.55 15.5 13.5 25.2 15.2 7.26-1.27 12.5-6.52 18-11.1 4.93-4.1 10-7.32 15.6-10.5 1.91-1.13 3.8-2.28 5.69-3.44 0.849-0.514 1.7-1.03 2.57-1.56 2.31-1.69 4.11-3.32 6.09-5.36 3.51-3.6 7.28-6.61 11.3-9.59 0.698-0.519 1.4-1.04 2.12-1.57 4.98-3.67 10.1-7.12 15.3-10.5 3.22-2.19 6.29-4.53 9.36-6.93 5.29-4.14 10.7-8 16.3-11.8 9-6.18 17.8-12.6 26.4-19.3 7.14-5.61 14.4-10.9 21.9-15.9 5.67-3.85 11.1-7.86 16.5-12.1 9.06-7.2 18.5-13.9 27.9-20.6 1.62-1.15 3.24-2.31 4.85-3.47 1.51-1.08 3.02-2.15 4.53-3.23 13.4-9.12 13.4-9.12 21.2-22.6 0.0949-1.37 0.145-2.75 0.158-4.12 0.0103-0.802 0.0205-1.6 0.0311-2.43 0.011-1.29 0.011-1.29 0.0221-2.61 0.0281-1.85 0.0568-3.69 0.0859-5.54 0.041-2.89 0.0779-5.78 0.104-8.67 0.205-20.6 0.205-20.6 3.6-30.6 0.419-1.28 0.419-1.28 0.845-2.6 6.95-20.3 23.3-34.3 41.5-44.3 17.8-8.73 40.2-10.7 59.2-4.53 18.7 7.59 34.4 19.3 45.2 36.6 0.529 0.839 0.529 0.839 1.07 1.69 6.72 11.4 8.97 22.5 8.68 35.6 0.00258 1.3 0.00516 2.6 0.00781 3.93-0.204 20.4-6.27 41.1-20.6 56.1-16.3 16-37.4 26.2-60.4 26-11-0.424-20.5-3.97-30.7-7.94-1.08-0.416-2.15-0.833-3.26-1.26-2.13-0.833-4.25-1.69-6.36-2.56-5.64-2.32-5.64-2.32-11.6-2.2-0.855 0.472-1.71 0.944-2.59 1.43-1.17 0.628-1.17 0.628-2.36 1.27-9.13 5.89-17.9 12.3-26.6 18.7-2 1.46-4 2.92-6 4.38-0.843 0.616-1.69 1.23-2.55 1.87-2.5 1.79-5.03 3.53-7.57 5.26-3.25 2.25-6.17 4.62-9.06 7.31-4.97 4.54-10.5 8.07-16.1 11.7-6.89 4.5-13.5 9.18-19.5 14.8-5.08 4.69-10.6 8.34-16.4 12.1-9.08 5.91-17.7 12.4-26.3 19-5.31 4.11-10.7 8.02-16.3 11.7-8.25 5.39-16 11.4-23.6 17.5-5.96 4.76-12 9.26-18.4 13.4-5.5 3.57-10.4 7.41-15.2 11.9-1.7 1.6-3.4 2.99-5.26 4.38-5.09 4.63-10.1 10.5-10.8 17.6 0.315 2.43 0.315 2.43 0.938 5 2.7 15.2 2.02 29.7-3.94 44-0.289 0.712-0.579 1.42-0.877 2.16-8.43 20.4-23.8 36.9-44.3 45.7-3.89 1.56-7.82 2.87-11.8 4.1-0.834 0.266-1.67 0.531-2.53 0.805-21.4 5.49-42.4-1.03-60.9-11.8-6.8-4.37-12.8-9.37-18.6-15-0.552-0.516-1.1-1.03-1.67-1.56-9.13-9.42-14.6-23.8-14.5-36.7 0.0167-1.04 0.0334-2.09 0.0506-3.17 0.00406-2.25 0.00595-4.5 0.00586-6.75 0.00809-3.52 0.0292-7.04 0.0881-10.6 0.814-15.5 0.814-15.5-5.25-29.1-2.28-2.26-2.28-2.26-4.75-4.16-0.855-0.752-1.71-1.5-2.59-2.28-2.17-1.88-4.4-3.65-6.68-5.39-2.01-1.54-3.99-3.11-5.98-4.69-6.71-5.29-13.4-10.5-20.5-15.3-5.3-3.58-10-7.57-14.8-11.8-4.91-4.28-10.1-7.9-15.5-11.5-4.41-2.97-8.51-6.14-12.5-9.64-7.48-6.51-15.5-12.1-23.7-17.7-5.48-3.76-10.9-7.58-16.1-11.7-10.6-8.23-21.6-15.9-32.7-23.4-1.22-0.825-2.43-1.65-3.64-2.49-1.72-1.18-3.46-2.35-5.19-3.51-1.01-0.685-2.02-1.37-3.06-2.08-4.03-2.21-7.07-3.13-11.6-1.87-0.872 0.399-1.74 0.797-2.64 1.21-0.982 0.435-1.96 0.869-2.98 1.32-1.03 0.469-2.06 0.938-3.13 1.42-22.8 9.9-41.2 11.9-65 2.94-14.9-6.65-32.1-17.8-39.6-32.6-0.349-0.68-0.698-1.36-1.06-2.06-10.4-20.5-16-41.2-9.01-64 9.43-26.2 25.2-43.1 50.2-55.1 14.3-6.49 34.9-7.51 49.8-2.19 21.8 8.46 40.8 21.9 51.2 43.5 4.95 12.5 5 25.9 5.4 39.1-0.00302 16.8-0.00302 16.8 4.56 32.7 1.78 1.08 1.78 1.08 4 2 2.14 1.62 4.23 3.26 6.31 4.94 4.99 3.98 10 7.86 15.2 11.6 0.623 0.456 1.25 0.911 1.89 1.38 3.05 2.22 6.12 4.42 9.21 6.58 6.43 4.51 12.5 9.19 18.4 14.4 4.01 3.44 8.22 6.38 12.7 9.23 5.39 3.47 10.1 7.19 14.8 11.6 6.83 6.22 14.2 11.6 22.1 16.3 4.36 2.6 8.01 5.32 11.7 8.81 7.56 7.17 16.3 12.7 25 18.3 5 3.27 9.74 6.62 14.3 10.5 6.92 5.74 13.6 11.3 22.9 11.7 9.11-1.09 18.5-9.75 24.4-16.3 1.15-3.46 1.14-6.16 1.16-9.81 0.00494-0.697 0.00988-1.39 0.015-2.11 0.0154-2.34 0.0237-4.68 0.0321-7.02 0.00958-1.68 0.0196-3.36 0.03-5.03 0.0271-4.57 0.0481-9.14 0.068-13.7 0.0219-4.81 0.0493-9.61 0.0761-14.4 0.0443-8.1 0.0851-16.2 0.123-24.3 0.0534-11.3 0.113-22.6 0.174-34 0.0477-8.88 0.0937-17.8 0.139-26.6 0.00482-0.933 0.00963-1.87 0.0146-2.83 0.0142-2.76 0.0282-5.53 0.0422-8.29 0.00453-0.89 0.00906-1.78 0.0137-2.7 0.0215-4.31 0.0404-8.63 0.0537-12.9 0.00518-1.64 0.0104-3.27 0.0157-4.91 0.00374-1.18 0.00374-1.18 0.00757-2.39 0.0173-4.54 0.0582-9.07 0.123-13.6 0.0287-2.07 0.0513-4.13 0.0717-6.2 0.0258-2.46 0.063-4.93 0.114-7.39 0.0546-6.75-0.37-11.4-4.97-16.7-5.42-4.74-11.2-8.76-17.1-12.8-6.82-4.63-13-9.79-19.2-15.3-0.771-0.652-1.54-1.3-2.34-1.98-6.07-5.46-9.83-12.4-12.7-20-0.29-0.758-0.579-1.52-0.878-2.3-2.2-6.97-2.27-13.6-2.1-20.8 0.0234-1.01 0.0467-2.02 0.0708-3.06 0.111-4.22 0.236-8.44 0.42-12.7 1.15-14.1 1.15-14.1-4.73-26.3-1.55-1.33-3.15-2.62-4.79-3.84-0.887-0.893-1.77-1.79-2.69-2.71-10.5-9.54-21.7-18.2-33.8-25.6-5.9-3.86-11.2-8.62-16.5-13.2-5.57-4.73-11.1-8.88-17.3-12.7-2.73-1.78-5.18-3.72-7.68-5.81-7.22-6.05-14.9-11.5-22.5-17.1-19.8-14.4-19.8-14.4-28.5-21.2-1.03-0.791-2.05-1.58-3.11-2.4-1.93-1.5-3.86-3-5.78-4.52-6.01-4.65-12.2-8.79-18.7-12.8-1.17-0.722-1.17-0.722-2.36-1.46-0.738-0.447-1.48-0.893-2.24-1.35-0.657-0.398-1.31-0.797-1.99-1.21-2-1.02-3.7-1.63-5.92-1.98-2.59 1.03-2.59 1.03-5.31 2.62-10.7 5.63-22 9.5-34.2 9.58-0.719 0.0057-1.44 0.0114-2.18 0.0173-1.52 0.00942-3.04 0.016-4.56 0.0198-2.29 0.00963-4.57 0.0407-6.86 0.0723-19.1 0.138-32-5.53-46.9-17.3-0.942-0.71-1.88-1.42-2.86-2.15l-2.14-1.85v-2h-2c-8.62-9.15-14.4-19.4-19-31l-1.38-3.38c-6.58-19-3.11-39.3 5.29-57 9.84-19.9 23.5-33 44.8-40.5 8.58-2.7 16.8-3.23 25.7-3.19 1.06 0.00193 2.13 0.00387 3.22 0.00586 6.15 0.0334 12.3 0.206 18.4 0.619 2.67 0.169 5.33 0.335 8 0.5 0.707 0.0475 1.41 0.0951 2.14 0.144 9.5 0.877 9.5 0.877 18-2.52 1.28-1.2 2.55-2.41 3.81-3.62 2.03-1.61 4.07-3.19 6.12-4.75 0.833-0.643 0.833-0.643 1.68-1.3 3.94-3.03 7.95-5.95 12-8.83 10.3-7.26 20.3-14.8 30.1-22.6 5.75-4.58 11.7-8.81 17.7-13 5.86-4.1 11.5-8.45 17.1-12.9 6.08-4.84 12.3-9.52 18.7-14 5.99-4.2 11.8-8.49 17.3-13.3 4.61-4.01 9.36-7.4 14.6-10.6 7.82-4.92 14.9-10.7 21.7-16.9 0.54-0.487 1.08-0.974 1.64-1.48 5.85-5.24 5.85-5.24 8.58-12.3-0.0436-2.3-0.229-4.55-0.463-6.83-0.128-1.7-0.253-3.4-0.375-5.1-0.0657-0.852-0.131-1.7-0.199-2.58-1.7-24.3 3.98-49.4 20.2-68.3 11.9-11.5 26.9-19.3 42.6-24.2 0.803-0.264 1.61-0.529 2.43-0.801 22.5-6.24 49.1 3.98 66.8 17.5z" fill="#000204"/>
<path transform="translate(788 341)" d="m0 0c8.85 7.82 16.1 18.3 17 30.4 0.33 10.6-0.212 18-7.29 26.4-8.75 9.27-18.2 15.3-31.1 15.9-12.8-0.236-22.9-5.49-32.2-14-6.21-6.53-10-15.7-9.91-24.8 1.45-12.7 7.3-24.5 17.3-32.5 14.7-9.37 30.8-8.97 46.3-1.38z" fill="#FCFDFF"/>
<path transform="translate(803 818)" d="m0 0c7.82 7.7 11.2 19.5 11.3 30.1 0.0189 9.26-0.916 15.6-7.36 22.6-9.4 8.94-20 14.9-33.1 15.2-10.6-0.285-17.3-4.39-25.9-10.4-0.675-0.451-1.35-0.902-2.05-1.37-6.68-5-10.7-13.5-12-21.6-0.565-11.1 1.83-21.3 8.68-30.2 15.6-17 42.1-17.6 60.4-4.3z" fill="#FCFDFF"/>
<path transform="translate(469 578)" d="m0 0c0.922-0.0185 1.84-0.0371 2.79-0.0562 8.14 0.074 15.5 2.01 21.8 7.43 9.66 10.6 14.1 23.1 13.7 37.3-0.794 10.3-8.27 16.8-15.3 23.8-9.77 8.19-18.6 9.04-31 8-8.12-1.64-14.6-5.87-21-11-0.661-0.523-1.32-1.05-2-1.59-6.13-5.43-9.32-12.6-10.4-20.6-0.447-12.3 3.25-23.5 11.4-32.8 8.6-8.43 18.4-10.4 30.1-10.5z" fill="#FCFDFF"/>
<path transform="translate(1155 931)" d="m0 0c7.35 5.44 13.4 11.8 14.9 21.1 0.234 3.41 0.231 6.83 0.25 10.2 0.0206 0.904 0.0412 1.81 0.0625 2.74 0.058 10.1-2.39 17.1-9.36 24.5-10.4 8.84-21.3 13.3-34.9 12.5-10.1-1.75-20.9-8.81-27-17-5.86-10.1-8.99-19.1-6.35-30.9 4.03-12.1 11.2-20.5 22.4-26.4 13.2-6.17 27.7-4.77 40 3.19z" fill="#FCFDFF"/>
<path transform="translate(801 1197)" d="m0 0c0.678 0.523 1.36 1.05 2.05 1.59v2c0.583 0.205 1.17 0.41 1.77 0.621 5.05 3.11 7.53 9.85 9.23 15.4 2 10.6 0.0328 21.5-5 31-5.36 7.79-10.2 11.4-19.4 13.5-5.06 0.878-10.2 0.726-15.3 0.769-1.7 0.0435-1.7 0.0435-3.44 0.0879-11.4 0.0856-19.3-2.85-27.6-10.8-5.25-6.09-8.96-13.5-9.27-21.6-0.0374-0.706-0.0748-1.41-0.113-2.14-0.318-9.84 2.21-17.5 8.91-24.8 4.52-4.3 9.52-7.67 14.8-10.9 0.932-0.572 0.932-0.572 1.88-1.16 14.8-8.74 28-2.06 41.4 6.45z" fill="#FCFDFF"/>
<path transform="translate(1106 582)" d="m0 0c9.41 8.73 14.4 20.5 15 33.2-0.157 11.3-4.41 19.2-12 27.4-3.47 3.06-7.04 5.62-11 8-0.62 0.38-1.24 0.761-1.88 1.15-7.59 3.68-18.6 3.21-26.5 0.816-11.2-5.21-20.2-13.5-24.8-25-4.01-11.7-2.54-18.4 2.47-29.5 4.68-9.06 10.5-15.5 20.2-19.1 1.64-0.625 1.64-0.625 3.31-1.26 11.3-3.65 25.4-2.71 35.3 4.42z" fill="#FCFDFF"/>
<path transform="translate(492 965)" d="m0 0c6.67 6.05 12.8 15.4 13.3 24.5 0.318 13.3-1.3 20.8-10.7 30.7-8.26 7.85-16.4 13.3-27.9 13.9-11.7-0.406-23-6.64-31.7-14.2-7.14-7.74-7.94-17.1-7.95-27.2 0.656-9.83 3.33-18.8 10.6-25.8 15.5-12.3 38.5-13.8 54.4-1.73z" fill="#FCFDFF"/>
</svg>
